<svg xmlns="http://www.w3.org/2000/svg" width="1440" height="480" viewBox="0 0 1440 480" role="img" aria-labelledby="title">
<!-- SPDX-License-Identifier: GPL-3.0-only -->
<!-- SPDX-FileCopyrightText: 2026 Qodeca sp. z o.o. -->
<title id="title">8cli – JSON frame – banner, dark theme</title>
<rect width="1440" height="480" fill="#101820"/><rect x="992" y="48" width="2" height="2" fill="#2C3B48"/><rect x="992" y="96" width="2" height="2" fill="#2C3B48"/><rect x="992" y="144" width="2" height="2" fill="#2C3B48"/><rect x="992" y="192" width="2" height="2" fill="#2C3B48"/><rect x="992" y="240" width="2" height="2" fill="#2C3B48"/><rect x="992" y="288" width="2" height="2" fill="#2C3B48"/><rect x="992" y="336" width="2" height="2" fill="#2C3B48"/><rect x="992" y="384" width="2" height="2" fill="#2C3B48"/><rect x="992" y="432" width="2" height="2" fill="#2C3B48"/><rect x="1040" y="48" width="2" height="2" fill="#2C3B48"/><rect x="1040" y="96" width="2" height="2" fill="#2C3B48"/><rect x="1040" y="144" width="2" height="2" fill="#2C3B48"/><rect x="1040" y="192" width="2" height="2" fill="#2C3B48"/><rect x="1040" y="240" width="2" height="2" fill="#2C3B48"/><rect x="1040" y="288" width="2" height="2" fill="#2C3B48"/><rect x="1040" y="336" width="2" height="2" fill="#2C3B48"/><rect x="1040" y="384" width="2" height="2" fill="#2C3B48"/><rect x="1040" y="432" width="2" height="2" fill="#2C3B48"/><rect x="1088" y="48" width="2" height="2" fill="#2C3B48"/><rect x="1088" y="96" width="2" height="2" fill="#2C3B48"/><rect x="1088" y="144" width="2" height="2" fill="#2C3B48"/><rect x="1088" y="192" width="2" height="2" fill="#2C3B48"/><rect x="1088" y="240" width="2" height="2" fill="#2C3B48"/><rect x="1088" y="288" width="2" height="2" fill="#2C3B48"/><rect x="1088" y="336" width="2" height="2" fill="#2C3B48"/><rect x="1088" y="384" width="2" height="2" fill="#2C3B48"/><rect x="1088" y="432" width="2" height="2" fill="#2C3B48"/><rect x="1136" y="48" width="2" height="2" fill="#2C3B48"/><rect x="1136" y="96" width="2" height="2" fill="#2C3B48"/><rect x="1136" y="144" width="2" height="2" fill="#2C3B48"/><rect x="1136" y="192" width="2" height="2" fill="#2C3B48"/><rect x="1136" y="240" width="2" height="2" fill="#2C3B48"/><rect x="1136" y="288" width="2" height="2" fill="#2C3B48"/><rect x="1136" y="336" width="2" height="2" fill="#2C3B48"/><rect x="1136" y="384" width="2" height="2" fill="#2C3B48"/><rect x="1136" y="432" width="2" height="2" fill="#2C3B48"/><rect x="1184" y="48" width="2" height="2" fill="#2C3B48"/><rect x="1184" y="96" width="2" height="2" fill="#2C3B48"/><rect x="1184" y="144" width="2" height="2" fill="#2C3B48"/><rect x="1184" y="192" width="2" height="2" fill="#2C3B48"/><rect x="1184" y="240" width="2" height="2" fill="#2C3B48"/><rect x="1184" y="288" width="2" height="2" fill="#2C3B48"/><rect x="1184" y="336" width="2" height="2" fill="#2C3B48"/><rect x="1184" y="384" width="2" height="2" fill="#2C3B48"/><rect x="1184" y="432" width="2" height="2" fill="#2C3B48"/><rect x="1232" y="48" width="2" height="2" fill="#2C3B48"/><rect x="1232" y="96" width="2" height="2" fill="#2C3B48"/><rect x="1232" y="144" width="2" height="2" fill="#2C3B48"/><rect x="1232" y="192" width="2" height="2" fill="#2C3B48"/><rect x="1232" y="240" width="2" height="2" fill="#2C3B48"/><rect x="1232" y="288" width="2" height="2" fill="#2C3B48"/><rect x="1232" y="336" width="2" height="2" fill="#2C3B48"/><rect x="1232" y="384" width="2" height="2" fill="#2C3B48"/><rect x="1232" y="432" width="2" height="2" fill="#2C3B48"/><rect x="1280" y="48" width="2" height="2" fill="#2C3B48"/><rect x="1280" y="96" width="2" height="2" fill="#2C3B48"/><rect x="1280" y="144" width="2" height="2" fill="#2C3B48"/><rect x="1280" y="192" width="2" height="2" fill="#2C3B48"/><rect x="1280" y="240" width="2" height="2" fill="#2C3B48"/><rect x="1280" y="288" width="2" height="2" fill="#2C3B48"/><rect x="1280" y="336" width="2" height="2" fill="#2C3B48"/><rect x="1280" y="384" width="2" height="2" fill="#2C3B48"/><rect x="1280" y="432" width="2" height="2" fill="#2C3B48"/><rect x="1328" y="48" width="2" height="2" fill="#2C3B48"/><rect x="1328" y="96" width="2" height="2" fill="#2C3B48"/><rect x="1328" y="144" width="2" height="2" fill="#2C3B48"/><rect x="1328" y="192" width="2" height="2" fill="#2C3B48"/><rect x="1328" y="240" width="2" height="2" fill="#2C3B48"/><rect x="1328" y="288" width="2" height="2" fill="#2C3B48"/><rect x="1328" y="336" width="2" height="2" fill="#2C3B48"/><rect x="1328" y="384" width="2" height="2" fill="#2C3B48"/><rect x="1328" y="432" width="2" height="2" fill="#2C3B48"/><rect x="1376" y="48" width="2" height="2" fill="#2C3B48"/><rect x="1376" y="96" width="2" height="2" fill="#2C3B48"/><rect x="1376" y="144" width="2" height="2" fill="#2C3B48"/><rect x="1376" y="192" width="2" height="2" fill="#2C3B48"/><rect x="1376" y="240" width="2" height="2" fill="#2C3B48"/><rect x="1376" y="288" width="2" height="2" fill="#2C3B48"/><rect x="1376" y="336" width="2" height="2" fill="#2C3B48"/><rect x="1376" y="384" width="2" height="2" fill="#2C3B48"/><rect x="1376" y="432" width="2" height="2" fill="#2C3B48"/><path d="M64 400H1376" stroke="#2C3B48"/><text x="64" y="64" font-family="Menlo,Consolas,monospace" font-size="17" fill="#AAB9C7" >Command-line clarity</text><g transform="translate(64 131) scale(1.18)"><g fill="none" stroke="#99B5FF" stroke-width="9" stroke-linecap="square" stroke-linejoin="round">
<path d="M36 18H27V49Q27 64 14 64Q27 64 27 79V110H36M92 18H101V49Q101 64 114 64Q101 64 101 79V110H92"/>
<rect x="49" y="28" width="30" height="30" rx="5"/><rect x="49" y="70" width="30" height="30" rx="5"/>
</g></g><g transform="translate(260 143) scale(1.65)"><g fill="none" stroke="#F1F6FA" stroke-width="9" stroke-linecap="square" stroke-linejoin="round">
<rect x="5" y="5" width="40" height="35" rx="12"/><rect x="5" y="40" width="40" height="40" rx="12"/>
<path d="M108 30H82Q69 30 69 43V67Q69 80 82 80H108M133 5V80H147M174 32V80"/>
</g><rect x="169.5" y="6" width="9" height="9" fill="#F1F6FA"/></g><text x="64" y="344" font-family="Menlo,Consolas,monospace" font-size="30" fill="#F1F6FA" >AI-first. JSON by default.</text><text x="64" y="439" font-family="Menlo,Consolas,monospace" font-size="17" fill="#AAB9C7" >Independent tooling for workflow automation</text><g transform="translate(1040 96) scale(2.1)"><g fill="none" stroke="#99B5FF" stroke-width="9" stroke-linecap="square" stroke-linejoin="round">
<path d="M36 18H27V49Q27 64 14 64Q27 64 27 79V110H36M92 18H101V49Q101 64 114 64Q101 64 101 79V110H92"/>
<rect x="49" y="28" width="30" height="30" rx="5"/><rect x="49" y="70" width="30" height="30" rx="5"/>
</g></g>
</svg>
